<?xml version="1.0" encoding="utf-8"?>
<!-- Generator: Adobe Illustrator 24.1.3, SVG Export Plug-In . SVG Version: 6.00 Build 0)  -->
<svg version="1.1" id="Layer_1" xmlns="http://www.w3.org/2000/svg" xmlns:xlink="http://www.w3.org/1999/xlink" x="0px" y="0px"
	 viewBox="0 0 209 160" style="enable-background:new 0 0 209 160;" xml:space="preserve">
<style type="text/css">
	.st0{fill:#EF842B;}
	.st1{fill:#E24D27;}
	.st2{fill:#E8C269;}
	.st3{fill:#231F20;}
	.st4{fill:url(#SVGID_1_);}
</style>
<g>
	<g>
		<g>
			<g>
				<path class="st0" d="M55.69,27.57c0,0,6.02-2.24,12.97-3.79c0,0,20.2-1.87,23.17-1.72c0,0,13.36,13.15,17.07,23.82
					c0,0,6.74,14.77,6.35,26.27c0,0-0.11,21.45-7.67,31.76c0,0-9.28,17.4-23.79,22.05l-16.44,4.72c0,0-15.11-4.74-17.91-8.04
					l-2.71-4.55c0,0,13.9,2.17,26.39-8.65c0,0,7.61-4.41,13.46-15.01c0,0,6.24-14.77,6.28-25.03c0,0,0.35-14.25-4.42-22.57
					c0,0-7.98-12.84-14.81-15.59C73.62,31.23,63.88,26.55,55.69,27.57z"/>
				<path class="st0" d="M182.91,69.76c0,0,5.73,7.39,8.08,11.55s2.52,4.03,3.14,7.48s1.43,7.83-1.14,16.24
					c-2.57,8.41-5.76,13.3-8.95,16.21c-3.19,2.91-5.51,2.48-5.51,2.48l-10.2,4.66c0,0,6.95-6.49,9.11-9.71s7.15-11.1,8.18-17.71
					c1.02-6.61,1.48-11.04,0.56-17.89C185.26,76.22,182.91,69.76,182.91,69.76z"/>
				<path class="st1" d="M91,82.64c-6.68,24.61-27.82,40.3-47.2,35.03c-19.38-5.26-30.9-29.36-24.22-53.97s29.04-40.42,48.43-35.16
					S97.68,58.03,91,82.64z"/>
				
					<ellipse transform="matrix(0.2621 -0.965 0.965 0.2621 -29.6219 104.7457)" class="st2" cx="53.68" cy="71.74" rx="37.71" ry="28.74"/>
				<path class="st3" d="M43.68,109.03c-15.83-4.3-24.23-24.33-18.71-44.64s22.89-33.34,38.72-29.04S87.91,59.68,82.4,79.99
					C76.88,100.3,59.51,113.33,43.68,109.03z M63.31,36.73c-15.07-4.09-31.65,8.48-36.96,28.03s2.63,38.79,17.7,42.88
					s31.65-8.48,36.96-28.03C86.32,60.06,78.38,40.82,63.31,36.73z"/>
				
					<ellipse transform="matrix(0.2621 -0.965 0.965 0.2621 -31.2756 103.0525)" class="st3" cx="51.75" cy="71.98" rx="30.54" ry="21.08"/>
				<path class="st3" d="M43.1,117.89c-20.03-5.44-30.85-30.03-24.12-54.81S47.48,22.56,67.52,28
					c20.03,5.44,30.86,30.03,24.12,54.81C84.91,107.6,63.14,123.33,43.1,117.89z M67.14,29.39c-19.27-5.23-40.25,10.05-46.77,34.07
					s3.85,47.82,23.11,53.05c19.27,5.23,40.25-10.05,46.78-34.07C96.78,58.42,86.41,34.63,67.14,29.39z"/>
				<g>
					<path class="st1" d="M96.83,26.89c0,0-17.39-0.48-28.11,2.19c0,0-2.75,2.45-3.5,7.43c0,0,4.75,2.35,5.71,3.08
						s0.34-4.49,4.24-6.72c0,0,12.95-1.21,26-1.19C101.16,31.67,102.37,26.91,96.83,26.89z"/>
					<path class="st3" d="M70.84,40.34c-0.11-0.03-0.24-0.09-0.36-0.18c-0.74-0.56-4.29-2.36-5.59-3.01l-0.47-0.23l0.08-0.52
						c0.78-5.17,3.62-7.75,3.74-7.86l0.13-0.12l0.17-0.04c10.6-2.64,27.82-2.22,28.3-2.21c1.97,0.01,3.42,0.58,4.29,1.7
						c1.29,1.67,0.75,3.88,0.73,3.97l-0.14,0.54h-0.56c-12.1-0.02-24.25,1.03-25.78,1.17c-2.09,1.27-2.66,3.52-3.04,5.02
						c-0.24,0.93-0.39,1.54-0.96,1.74C71.26,40.36,71.07,40.4,70.84,40.34z M66,36.1c1.09,0.54,3.59,1.81,4.83,2.57
						c0.04-0.14,0.08-0.3,0.12-0.44c0.4-1.55,1.13-4.43,3.85-5.99l0.29-0.09c0.13-0.01,12.72-1.18,25.45-1.19
						c0.04-0.58,0-1.5-0.55-2.21c-0.58-0.75-1.65-1.13-3.16-1.14h-0.02c-0.17,0-17.21-0.44-27.73,2.12
						C68.58,30.23,66.7,32.36,66,36.1z"/>
				</g>
				<g>
					<path class="st1" d="M56.76,108.13c0,0-2.63,2.98,0.21,9.62c0,0,12.36,9.36,22.96,10.4c0,0,4.84-1.16,6.88-2.1
						c0,0-19.47-8.5-22.77-10.79c0,0-3.33-5.54-1.75-9.4L56.76,108.13z"/>
					<path class="st3" d="M75.41,128.02c-9.35-2.54-18.43-9.36-18.87-9.7l-0.15-0.12l-0.07-0.17c-2.99-6.97-0.21-10.24-0.09-10.37
						l0.11-0.13l7.28-2.99l-0.65,1.59c-1.3,3.17,1.15,7.79,1.62,8.62c3.56,2.35,22.33,10.55,22.52,10.63l1.46,0.64l-1.44,0.67
						c-2.07,0.96-6.81,2.1-7.01,2.15l-0.24,0.02C78.4,128.72,76.9,128.42,75.41,128.02z M57.56,117.29
						c1.43,1.05,12.7,9.13,22.33,10.13c0.57-0.14,3.09-0.76,5.04-1.42c-4.76-2.1-18.5-8.21-21.29-10.15l-0.21-0.22
						c-0.13-0.21-2.77-4.66-2.19-8.56l-4.02,1.65C56.81,109.31,55.34,111.98,57.56,117.29z"/>
				</g>
				<g>
					<path class="st1" d="M46.47,117.49c0,0,0.15-5.21,1.43-8.06c0.46-0.1-3.39-1.19-5.88-1.6c0,0-3.7,5.59-1.69,8.93
						c1.08,1.81,11.69,7.54,11.69,7.54C48.43,121.86,46.47,117.49,46.47,117.49z"/>
					<path class="st3" d="M51.68,124.94c-1.8-0.97-10.84-5.92-11.97-7.8c-2.21-3.69,1.55-9.45,1.71-9.7l0.26-0.39l0.46,0.07
						c1.52,0.25,6.49,1.14,6.52,2.26l0.02,0.59l-0.25,0.06c-0.97,2.45-1.19,6.44-1.23,7.3c0.37,0.76,2.21,4.32,5.23,6.37
						L51.68,124.94z M42.38,108.62c-0.75,1.27-2.9,5.33-1.43,7.77c0.48,0.8,3.63,2.81,6.87,4.71c-1.27-1.73-1.95-3.22-1.99-3.32
						l-0.06-0.31c0.01-0.2,0.15-4.7,1.24-7.7C46.04,109.47,44.07,108.94,42.38,108.62z"/>
				</g>
				<g>
					<path class="st1" d="M78.45,48c0,0,2.73-5.22,6.49-6.69c0,0,15.46-1.31,24.75,0.97l2.14,6.47c0,0-19.94-1.97-23.84-1.13
						c0,0-5.38,3.08-6.58,7L78.45,48z"/>
					<path class="st3" d="M81.53,56.66l-3.88-8.68l0.16-0.31c0.12-0.22,2.9-5.48,6.87-7.03l0.2-0.05c0.64-0.05,15.68-1.3,24.98,0.99
						l0.39,0.09l2.61,7.89l-1.1-0.11c-0.2-0.02-19.51-1.91-23.51-1.16c-0.71,0.43-5.14,3.2-6.15,6.53L81.53,56.66z M79.25,48.03
						l2.15,4.81c1.9-3.35,6.03-5.74,6.23-5.86l0.21-0.08c3.47-0.75,18.69,0.61,22.97,1.01l-1.67-5.04
						c-8.71-2.01-22.67-0.97-24.03-0.87C82.18,43.22,79.87,46.95,79.25,48.03z"/>
				</g>
				<g>
					<path class="st1" d="M83.16,62.95c0,0,2.98-0.4,9.01-0.88c0,0,14.83,0.11,23.78,1.93l0.23,8.24c0,0-19.82-1.81-23.38-2.13
						c0,0-7.94-0.5-9.61,0.71L83.16,62.95z"/>
					<path class="st3" d="M82.48,72.21l-0.05-9.89l0.63-0.08c0.03,0,3.07-0.41,9.05-0.88c0.21,0,15.07,0.13,23.98,1.94l0.56,0.11
						l0.27,9.62l-0.81-0.07c0,0-19.82-1.81-23.38-2.13c-3.17-0.2-8.12-0.15-9.12,0.57L82.48,72.21z M83.88,63.58l0.03,6.17
						c2.63-0.7,7.78-0.43,8.94-0.36c3.15,0.28,18.84,1.71,22.59,2.06l-0.19-6.86c-8.83-1.68-22.94-1.8-23.08-1.8
						C87.82,63.13,85.04,63.44,83.88,63.58z"/>
				</g>
				<g>
					<path class="st1" d="M71.69,99.19c0,0,0.3,3.93,5.13,8.54c0,0,10.3,6.89,21.75,9.47c0,0,3.73-3.95,5.23-6.11
						c1.45,0.54-16.41-4.94-21.86-9.21c0,0-5.26-4.63-5.55-9.24C76.39,92.64,72.9,97.86,71.69,99.19z"/>
					<path class="st3" d="M96.35,117.39c-10.6-2.88-19.82-9-19.92-9.06c-5.07-4.82-5.44-8.91-5.45-9.08l-0.02-0.31l0.21-0.23
						c1.16-1.27,4.59-6.41,4.63-6.46l1.18-1.77l0.13,2.12c0.27,4.26,5.26,8.71,5.31,8.75c4.47,3.5,18.18,8.04,21.08,8.93l0.03-0.05
						l0.96,0.35l0.11,0.5l0.03,0.46l-0.41,0.22c-0.01,0-0.01,0.01-0.02,0.01c-1.6,2.21-4.95,5.76-5.1,5.92l-0.28,0.3l-0.4-0.09
						C97.72,117.75,97.03,117.57,96.35,117.39z M77.32,107.21c0.03,0.01,10.01,6.61,21.01,9.2c0.76-0.82,2.89-3.13,4.25-4.88
						c-4.68-1.21-17.5-6.27-21.09-9.08c-0.22-0.2-4.28-3.81-5.49-7.95c-1.04,1.52-2.65,3.84-3.55,4.91
						C72.63,100.35,73.5,103.56,77.32,107.21L77.32,107.21z"/>
				</g>
				<g>
					<path class="st1" d="M79.04,87.85c0,0,4.47,2.66,8.46,4.14c5.03,1.86,19.1,5.97,23.07,7.13c0,0,2.08-5.55,2.97-8.99
						l-21.71-7.26c0,0-4.26-1.16-10.13-3.07L79.04,87.85z"/>
					<path class="st3" d="M111.01,99.99l-0.64-0.19c-11.95-3.49-19.73-5.89-23.12-7.15c-4-1.48-8.39-4.08-8.58-4.19l-0.5-0.29
						l3.07-9.28l0.68,0.22c5.78,1.88,10.05,3.05,10.09,3.06l22.38,7.49l-0.17,0.65c-0.89,3.44-2.91,8.83-2.99,9.06L111.01,99.99z
						 M79.91,87.52c1.27,0.72,4.73,2.64,7.84,3.79c2.27,0.84,8,2.72,22.38,6.93c0.52-1.42,1.8-4.99,2.54-7.64L91.6,83.55
						c0,0-3.99-1.09-9.44-2.85L79.91,87.52z"/>
				</g>
				<g>
					<path class="st1" d="M185.02,77.61c0,0,7.42,7.5,9.11,11.18c0,0,0.41,4.98,0.33,6.32c0,0-1.91-3.23-7.74-6.93
						C186.73,88.19,186.19,81.43,185.02,77.61z"/>
					<path class="st3" d="M195.04,97.48l-1.19-1.99c-0.02-0.03-1.93-3.15-7.5-6.69l-0.3-0.19l-0.03-0.36
						c-0.01-0.07-0.55-6.72-1.68-10.42l-0.85-2.79l2.05,2.07c0.31,0.31,7.53,7.64,9.26,11.39l0.06,0.24
						c0.02,0.21,0.42,5.04,0.34,6.42L195.04,97.48z M187.41,87.78c3.14,2.03,5.12,3.9,6.29,5.2c-0.08-1.6-0.23-3.49-0.27-3.99
						c-1.17-2.42-4.82-6.52-7.07-8.93C186.97,83.15,187.31,86.66,187.41,87.78z"/>
				</g>
				<g>
					<path class="st1" d="M174.98,121.83c0,0,4.69,0.61,10.25-1.83c0,0,2.55-2.99,3.75-5.33c0,0-5.18,1.71-9.38,0.78
						C179.6,115.46,175.91,120.76,174.98,121.83z"/>
					<path class="st3" d="M173.56,122.37l0.88-1.01c0.9-1.04,4.53-6.26,4.57-6.32l0.27-0.39l0.47,0.1c3.96,0.87,8.95-0.75,9-0.76
						l1.66-0.55l-0.8,1.56c-1.22,2.38-3.74,5.34-3.84,5.47l-0.11,0.13l-0.15,0.07c-5.68,2.49-10.43,1.91-10.63,1.88L173.56,122.37z
						 M179.91,116.25c-0.66,0.95-2.37,3.39-3.52,4.93c1.7,0,4.87-0.26,8.39-1.77c0.37-0.44,1.64-2,2.68-3.59
						C185.63,116.25,182.65,116.73,179.91,116.25z"/>
				</g>
				<g>
					<path class="st1" d="M186.52,95.7c0,0,4.21,1.9,7.4,4.58c0,0-0.34,2.59-0.94,3.47c0,0-5.47-2.17-7.35-2.77
						C185.62,100.97,186.4,96.91,186.52,95.7z"/>
					<path class="st3" d="M193.24,104.62l-0.53-0.21c-0.05-0.02-5.47-2.17-7.31-2.76l-0.61-0.19l0.12-0.63
						c0.01-0.04,0.78-4.03,0.89-5.2l0.1-1l0.92,0.41c0.18,0.08,4.34,1.97,7.56,4.68l0.3,0.25l-0.05,0.39
						c-0.06,0.46-0.4,2.81-1.06,3.78L193.24,104.62z M186.44,100.48c1.75,0.61,4.85,1.82,6.17,2.34c0.22-0.61,0.41-1.52,0.53-2.26
						c-2.16-1.74-4.73-3.13-6.05-3.8C186.91,97.95,186.61,99.6,186.44,100.48z"/>
				</g>
				<g>
					<path class="st1" d="M184.19,105.63c0,0,4.96,1.95,7.9,1.68c0,0-0.99,2.64-1.49,3.68c0,0-3.24,0.46-8.43-0.68
						C182.17,110.32,183.23,108.52,184.19,105.63z"/>
					<path class="st3" d="M181.06,110.81l0.5-0.85c0.01-0.02,1.04-1.78,1.96-4.55l0.24-0.72l0.71,0.28
						c0.05,0.02,4.84,1.89,7.57,1.64l1.14-0.1l-0.4,1.07c-0.04,0.11-1.01,2.68-1.51,3.74l-0.17,0.35l-0.38,0.05
						c-0.14,0.02-3.43,0.46-8.68-0.69L181.06,110.81z M184.63,106.56c-0.51,1.43-1.02,2.54-1.38,3.25c3.5,0.67,5.96,0.59,6.87,0.52
						c0.28-0.64,0.65-1.58,0.92-2.28C188.74,107.93,185.92,107.02,184.63,106.56z"/>
				</g>
				<path class="st3" d="M66.77,131.11c-14.33-3.89-24.61-12.33-25.86-13.39c-19.01-5.97-28.68-29.79-22.03-54.3
					c4.81-17.72,17.4-31.62,32.07-35.43c21.75-8.79,54.77-6.54,78.2-1.75C167.7,41.5,192,81.6,192.23,82.02l0.02,0.03
					c3.36,4.33,3.91,13.54,1.34,22.99c-1.89,6.97-5.13,12.98-8.9,16.54l-0.03,0.14l-0.3,0.15c-1.82,1.68-3.75,2.65-5.61,2.82
					c-37.33,17.83-72.73,13.97-73.08,13.92c-10.05-0.34-23.15-3.59-33.67-6.19l-3.74-0.92C67.76,131.38,67.26,131.25,66.77,131.11z
					 M129.16,26.24c-23.11-4.71-56.19-5.6-77.76,3.11c-14.27,3.7-26.45,17.21-31.13,34.44c-6.47,23.83,2.84,46.93,21.21,52.6
					l0.19,0.09c0.53,0.45,11.47,9.84,26.94,13.62l3.74,0.92c10.46,2.59,23.47,5.81,33.43,6.15c0.41,0.04,35.48,3.86,72.47-13.85
					l0.26-0.07c1.55-0.11,3.28-0.99,4.99-2.54l0.07-0.06c3.59-3.31,6.82-9.29,8.64-16c2.47-9.1,2.01-17.87-1.16-21.82l-0.21-0.36
					C188.79,78.98,165.55,40.65,129.16,26.24z"/>
				<g>
					
						<radialGradient id="SVGID_1_" cx="102.7308" cy="107.7947" r="123.5679" gradientTransform="matrix(1 0 0 -1 0 170)" gradientUnits="userSpaceOnUse">
						<stop  offset="0" style="stop-color:#FBB03B"/>
						<stop  offset="0.1979" style="stop-color:#FDA22D"/>
						<stop  offset="0.46" style="stop-color:#FE9722"/>
						<stop  offset="0.7398" style="stop-color:#FF931E"/>
					</radialGradient>
					<path class="st4" d="M92.39,22.97c0,0,30.55,22.97,21.55,66.36c0,0-5.36,35.84-46.25,40.87c0,0,36.63,10.16,58.82,7.93
						c26.6-2.68,42.68-9.51,42.68-9.51S200,105.65,182,67.41c0,0-15.9-20.57-32.68-30.61S133.67,25.06,92.39,22.97z"/>
					<path class="st3" d="M67.69,130.89c-0.1-0.03-0.16-0.04-0.17-0.05l-3.24-0.9l3.34-0.41c39.88-4.91,45.61-39.95,45.67-40.3
						C122.1,46.75,92.3,23.73,92,23.51l-1.75-1.32l2.18,0.11c37.61,1.9,40.27,3.52,53,11.33c1.3,0.79,2.7,1.65,4.25,2.58
						c16.69,10,32.71,30.57,32.87,30.78c18.1,38.42-12.63,61.93-12.94,62.16c-0.3,0.15-16.62,6.97-43.02,9.64
						C105.3,140.94,70.45,131.64,67.69,130.89z M94.34,23.74c6.14,5.49,28.05,28.15,20.26,65.72c-0.05,0.32-5.59,34.42-43.55,40.92
						c9.37,2.37,37.37,8.89,55.4,7.07c26.18-2.64,42.33-9.39,42.49-9.46c0.16-0.15,30.02-23.02,12.47-60.31
						c-0.08-0.08-15.94-20.46-32.42-30.32c-1.56-0.93-2.96-1.8-4.26-2.59C132.46,27.26,129.73,25.58,94.34,23.74z"/>
				</g>
			</g>
		</g>
	</g>
	<g>
		<path class="st1" d="M28.82,97.12c0,0-2.27-1.47-6.04,3.53c0,0,1.01,2.78,3.75,5.43c0,0,3.1-3.89,5.96-4.38
			C32.49,101.71,30.41,98.05,28.82,97.12z"/>
		<path class="st3" d="M26.6,107.07l-0.57-0.55c-2.81-2.73-3.86-5.55-3.9-5.67l-0.11-0.3l0.2-0.26c1.78-2.36,3.51-3.69,5.14-3.96
			c1.04-0.17,1.7,0.17,1.84,0.26c1.69,0.99,3.69,4.44,3.91,4.83l0.44,0.76l-0.92,0.16c-2.13,0.36-4.71,3.1-5.53,4.13L26.6,107.07z
			 M23.56,100.74c0.3,0.69,1.2,2.51,2.93,4.36c0.91-1.02,2.89-3.02,4.98-3.77c-0.75-1.21-2.07-3.1-3.02-3.67l-0.01-0.01
			C28.36,97.61,26.61,96.82,23.56,100.74z"/>
	</g>
	<g>
		<path class="st1" d="M56.86,34.88c0,0,0.74-4.51,3.78-6.96c0,0-4.79-1.25-9.75,1.6c0,0-0.56,3.57-0.01,6.72
			C50.88,36.23,53.83,35.41,56.86,34.88z"/>
		<path class="st3" d="M50.29,37.1l-0.14-0.81c-0.56-3.21-0.01-6.76,0.01-6.91l0.04-0.28l0.26-0.15c5.18-2.97,10.14-1.73,10.35-1.67
			l1.33,0.35l-0.98,0.79c-2.82,2.27-3.56,6.55-3.56,6.6l-0.07,0.43l-0.48,0.08c-2.96,0.51-5.87,1.32-5.9,1.33L50.29,37.1z
			 M51.59,29.93c-0.1,0.8-0.35,3.15-0.09,5.44c1.02-0.27,2.81-0.7,4.72-1.05c0.24-1.06,1-3.84,2.92-5.96
			C57.5,28.22,54.58,28.3,51.59,29.93z"/>
	</g>
	<g>
		<path class="st1" d="M35.53,37.4c0,0,0.14,3.56,2.6,6.26c0,0-2.92,2.81-4.59,5.05c0,0-4.18-2.4-3.65-5.85
			C29.89,42.85,32.14,40,35.53,37.4z"/>
		<path class="st3" d="M33.74,49.65l-0.59-0.34c-0.19-0.11-4.61-2.69-4-6.57l0.03-0.18l0.12-0.15c0.09-0.12,2.35-2.95,5.78-5.58
			l1.16-0.89l0.06,1.42c0,0.03,0.17,3.35,2.41,5.81l0.46,0.5l-0.49,0.47c-0.03,0.03-2.89,2.8-4.52,4.96L33.74,49.65z M30.6,43.13
			c-0.21,2.14,1.76,3.86,2.76,4.59c1.28-1.6,2.96-3.31,3.76-4.11c-1.34-1.7-1.92-3.59-2.16-4.83C32.66,40.71,31.04,42.6,30.6,43.13z
			"/>
	</g>
	<g>
		<path class="st1" d="M26.51,61.15c0,0-1.64,4.61-2.04,6.37s-4.41-0.18-5.64-1.28c0,0,0.81-3.45,2.2-6.72
			C21.03,59.52,22.99,59.59,26.51,61.15z"/>
		<path class="st3" d="M21.5,68.55c-1.3-0.46-2.57-1.25-3.14-1.76l-0.29-0.26l0.1-0.41c0.03-0.14,0.84-3.55,2.25-6.85l0.2-0.48
			l0.49,0.02c0.08,0,2.12,0.09,5.71,1.69l0.55,0.24l-0.22,0.61c-0.02,0.05-1.63,4.59-2.02,6.28c-0.13,0.55-0.48,0.96-1,1.16
			C23.44,69.06,22.46,68.9,21.5,68.55z M19.59,65.94c1.39,1.05,3.83,1.88,4.2,1.51c0.34-1.45,1.4-4.55,1.87-5.88
			c-2.07-0.87-3.52-1.18-4.22-1.29C20.48,62.64,19.83,65,19.59,65.94z"/>
	</g>
	<g>
		<path class="st1" d="M24.4,78.9c0,0-2.97-0.86-6.21-0.23c0,0-0.93,1.8-0.19,5.56c0,0,3.65,0.55,6.74-0.08
			C24.73,84.15,24.34,81.07,24.4,78.9z"/>
		<path class="st3" d="M17.4,84.86l-0.09-0.46c-0.77-3.96,0.22-5.95,0.26-6.04l0.17-0.33l0.35-0.07c3.37-0.65,6.4,0.21,6.53,0.25
			l0.49,0.14l-0.01,0.52c-0.05,2.09,0.33,5.11,0.33,5.14l0.09,0.68l-0.68,0.14c-3.17,0.65-6.83,0.11-6.98,0.09L17.4,84.86z
			 M18.68,79.29c-0.18,0.6-0.47,2.02-0.09,4.29c0.96,0.11,3.24,0.3,5.37-0.01c-0.1-0.93-0.26-2.62-0.27-4.1
			C22.81,79.28,20.83,78.96,18.68,79.29z"/>
	</g>
</g>
</svg>
